{
    "asset" : {
        "generator" : "Khronos glTF Blender I/O v1.8.19",
        "version" : "2.0"
    },
    "scene" : 0,
    "scenes" : [
        {
            "name" : "Scene",
            "nodes" : [
                35
            ]
        }
    ],
    "nodes" : [
        {
            "name" : "foot.B.L",
            "rotation" : [
                -0.5738169550895691,
                0.013965727761387825,
                0.00016868315287865698,
                0.818864643573761
            ],
            "scale" : [
                0.9999999403953552,
                0.9999998807907104,
                1
            ],
            "translation" : [
                4.3877856903407064e-09,
                0.0493188314139843,
                -6.125529417033704e-09
            ]
        },
        {
            "children" : [
                0
            ],
            "name" : "leg.lower.B.L",
            "rotation" : [
                -0.454211562871933,
                0.0026618260890245438,
                0.010377232916653156,
                0.8908294439315796
            ],
            "scale" : [
                1,
                0.9999997615814209,
                1.0000007152557373
            ],
            "translation" : [
                -1.1837388846913655e-08,
                0.037602201104164124,
                -4.5199313736254965e-10
            ]
        },
        {
            "children" : [
                1
            ],
            "name" : "leg.upper.B.L",
            "rotation" : [
                0.4388066232204437,
                -0.009999045170843601,
                0.04486297816038132,
                0.897405207157135
            ],
            "scale" : [
                0.9999996423721313,
                0.9999995827674866,
                1.0000001192092896
            ],
            "translation" : [
                -2.3660366998967675e-09,
                0.04817432537674904,
                3.0494620162357933e-09
            ]
        },
        {
            "children" : [
                2
            ],
            "name" : "thigh.B.L",
            "rotation" : [
                0.6790321469306946,
                0.04018871486186981,
                -0.014816000126302242,
                0.7328579425811768
            ],
            "scale" : [
                1.0000003576278687,
                0.9999997019767761,
                1.000000238418579
            ],
            "translation" : [
                0.050540294498205185,
                0.0233729500323534,
                0.05236183479428291
            ]
        },
        {
            "name" : "tail.end",
            "rotation" : [
                0.26572373509407043,
                -0.014456503093242645,
                0.04039915278553963,
                0.9630938768386841
            ],
            "scale" : [
                0.9999998807907104,
                0.9999999403953552,
                1
            ],
            "translation" : [
                4.0978132886948515e-08,
                0.043262407183647156,
                -2.1307018016614165e-07
            ]
        },
        {
            "children" : [
                4
            ],
            "name" : "tail.03",
            "rotation" : [
                0.23685681819915771,
                -0.01324436441063881,
                0.040812768042087555,
                0.9705966114997864
            ],
            "scale" : [
                0.9999997615814209,
                0.9999996423721313,
                0.9999996423721313
            ],
            "translation" : [
                1.0058284516389904e-07,
                0.04704708606004715,
                -6.878648406427601e-08
            ]
        },
        {
            "children" : [
                5
            ],
            "name" : "tail.02",
            "rotation" : [
                0.21023689210414886,
                -0.012123693712055683,
                0.041159454733133316,
                0.9767084717750549
            ],
            "scale" : [
                0.9999998807907104,
                1.0000001192092896,
                1.0000003576278687
            ],
            "translation" : [
                1.8626431508295127e-09,
                0.042008936405181885,
                -2.1716951792427608e-08
            ]
        },
        {
            "children" : [
                6
            ],
            "name" : "tail.01",
            "rotation" : [
                0.22708703577518463,
                0.006308143958449364,
                0.02454562485218048,
                0.9735446572303772
            ],
            "scale" : [
                0.9999999403953552,
                0.9999997019767761,
                0.9999998807907104
            ],
            "translation" : [
                9.31735577580639e-10,
                0.046998530626297,
                -4.051219946177298e-07
            ]
        },
        {
            "children" : [
                7
            ],
            "name" : "tail",
            "rotation" : [
                -0.9848843216896057,
                0.07255271077156067,
                0.023487772792577744,
                0.15552261471748352
            ],
            "scale" : [
                1.000000238418579,
                0.9999998807907104,
                1.0000015497207642
            ],
            "translation" : [
                4.104835138463159e-09,
                -0.013905304484069347,
                0.0005553608061745763
            ]
        },
        {
            "name" : "foot.F.L",
            "rotation" : [
                -0.2717536389827728,
                0.01907052844762802,
                -0.011252457275986671,
                0.9621120691299438
            ],
            "scale" : [
                0.9999998211860657,
                0.9999990463256836,
                1.0000007152557373
            ],
            "translation" : [
                -2.6888349324849514e-09,
                0.04802103340625763,
                -1.6358217891365712e-08
            ]
        },
        {
            "children" : [
                9
            ],
            "name" : "leg.lower.FL",
            "rotation" : [
                -0.2489227056503296,
                -0.0026793505530804396,
                0.025825249031186104,
                0.9681754112243652
            ],
            "scale" : [
                0.9999998807907104,
                1.0000001192092896,
                1.0000003576278687
            ],
            "translation" : [
                3.2840513641829716e-10,
                0.06740406155586243,
                -1.1758270801465187e-08
            ]
        },
        {
            "children" : [
                10
            ],
            "name" : "leg.upper.F.L",
            "rotation" : [
                0.623460054397583,
                -0.004709659609943628,
                -0.009112038649618626,
                0.7817879319190979
            ],
            "scale" : [
                1.000000238418579,
                1.0000005960464478,
                0.9999999403953552
            ],
            "translation" : [
                0.04385659843683243,
                0.11184725910425186,
                0.20885133743286133
            ]
        },
        {
            "name" : "ear.L",
            "rotation" : [
                -0.12753114104270935,
                0.38437172770500183,
                -0.18865752220153809,
                0.8946523070335388
            ],
            "scale" : [
                0.9999998807907104,
                1.0000001192092896,
                0.9999999403953552
            ],
            "translation" : [
                0.04900163784623146,
                0.10136788338422775,
                -0.011096002534031868
            ]
        },
        {
            "name" : "ear.R",
            "rotation" : [
                -0.12816330790519714,
                -0.38438552618026733,
                0.18725867569446564,
                0.8948497772216797
            ],
            "scale" : [
                1,
                0.9999999403953552,
                0.9999998807907104
            ],
            "translation" : [
                -0.04878413304686546,
                0.10151739418506622,
                -0.01111871749162674
            ]
        },
        {
            "name" : "mouth",
            "rotation" : [
                0.5814353823661804,
                -0.0005355479661375284,
                -0.0005510583869181573,
                0.813592255115509
            ],
            "scale" : [
                0.9999999403953552,
                1,
                1.0000001192092896
            ],
            "translation" : [
                -1.315849931415869e-05,
                0.034785524010658264,
                0.07405143231153488
            ]
        },
        {
            "name" : "eye.L",
            "rotation" : [
                -0.21188656985759735,
                0.005477710627019405,
                0.0343681164085865,
                0.9766744375228882
            ],
            "scale" : [
                1,
                1.0000003576278687,
                1.0000001192092896
            ],
            "translation" : [
                0.03673427924513817,
                0.06753420829772949,
                0.06062740832567215
            ]
        },
        {
            "name" : "eye.R",
            "rotation" : [
                -0.2118869125843048,
                -0.005382248666137457,
                -0.035911861807107925,
                0.9766194224357605
            ],
            "scale" : [
                1.0000001192092896,
                1.000000238418579,
                1.0000001192092896
            ],
            "translation" : [
                -0.03665395453572273,
                0.06764648109674454,
                0.06061038374900818
            ]
        },
        {
            "children" : [
                12,
                13,
                14,
                15,
                16
            ],
            "name" : "head",
            "rotation" : [
                -0.16579082608222961,
                0.00808375421911478,
                0.01207827776670456,
                0.9860538244247437
            ],
            "scale" : [
                0.9999999403953552,
                0.9999998807907104,
                0.9999997019767761
            ],
            "translation" : [
                2.4891840325058645e-11,
                0.03046589344739914,
                1.0002241701556613e-08
            ]
        },
        {
            "children" : [
                17
            ],
            "name" : "neck",
            "rotation" : [
                -0.3401155173778534,
                -0.0003402890870347619,
                -0.0003647205012384802,
                0.9403835535049438
            ],
            "scale" : [
                1,
                0.9999999403953552,
                1
            ],
            "translation" : [
                8.00093491459819e-10,
                0.04806080088019371,
                1.4027145311956701e-07
            ]
        },
        {
            "name" : "foot.F.R",
            "rotation" : [
                -0.7246063351631165,
                -0.021318156272172928,
                0.03683312609791756,
                0.6878477334976196
            ],
            "scale" : [
                0.9999996423721313,
                0.9999997615814209,
                1.0000007152557373
            ],
            "translation" : [
                -5.054403562354537e-10,
                0.04802103340625763,
                -4.796253616490276e-09
            ]
        },
        {
            "children" : [
                19
            ],
            "name" : "leg.lower.F.R",
            "rotation" : [
                -0.1832529455423355,
                -0.018926287069916725,
                -0.042043425142765045,
                0.9819839596748352
            ],
            "scale" : [
                0.9999998807907104,
                0.999999463558197,
                0.9999994039535522
            ],
            "translation" : [
                5.775784295281028e-10,
                0.06740405410528183,
                2.422475553487402e-08
            ]
        },
        {
            "children" : [
                20
            ],
            "name" : "leg.upper.F.R",
            "rotation" : [
                0.9093974828720093,
                -0.0034764069132506847,
                0.0021705138497054577,
                0.41590821743011475
            ],
            "scale" : [
                0.9999998807907104,
                1.000000238418579,
                1
            ],
            "translation" : [
                -0.043879035860300064,
                -0.1551268994808197,
                0.15607218444347382
            ]
        },
        {
            "children" : [
                11,
                18,
                21
            ],
            "name" : "spine.02",
            "rotation" : [
                -0.05285605043172836,
                3.167823888361454e-05,
                -0.0001640789705561474,
                0.9986021518707275
            ],
            "scale" : [
                0.9999999403953552,
                0.9999998807907104,
                1.0000001192092896
            ],
            "translation" : [
                1.8303161208876872e-09,
                0.07222893834114075,
                -1.744379574120103e-07
            ]
        },
        {
            "children" : [
                22
            ],
            "name" : "spine.01",
            "rotation" : [
                0.08432051539421082,
                1.1665727470244747e-05,
                6.408833428395155e-07,
                0.99643874168396
            ],
            "scale" : [
                1.000000238418579,
                1,
                0.9999998807907104
            ],
            "translation" : [
                2.0732911915066765e-12,
                0.06945939362049103,
                5.212835318957332e-08
            ]
        },
        {
            "name" : "foot.B.R",
            "rotation" : [
                -0.17950889468193054,
                -0.01635373942553997,
                0.01910228841006756,
                0.9834349155426025
            ],
            "scale" : [
                1.0000001192092896,
                1.0000007152557373,
                0.9999992847442627
            ],
            "translation" : [
                -7.371140586798219e-09,
                0.04931880533695221,
                -2.251267394726142e-09
            ]
        },
        {
            "children" : [
                24
            ],
            "name" : "leg.lower.B.R",
            "rotation" : [
                -0.3951092064380646,
                -0.00552422646433115,
                -0.016643889248371124,
                0.9184667468070984
            ],
            "scale" : [
                0.9999999403953552,
                0.999999463558197,
                1.000001311302185
            ],
            "translation" : [
                -9.235470166402138e-10,
                0.03760223090648651,
                2.7369107868935316e-08
            ]
        },
        {
            "children" : [
                25
            ],
            "name" : "leg.upper.B.R",
            "rotation" : [
                0.6320022344589233,
                -0.0014733574353158474,
                -0.05317250266671181,
                0.7731388807296753
            ],
            "scale" : [
                1,
                0.9999996423721313,
                1.0000003576278687
            ],
            "translation" : [
                -6.071679603536495e-09,
                0.04817426577210426,
                1.1756061901735393e-08
            ]
        },
        {
            "children" : [
                26
            ],
            "name" : "thigh.B.R",
            "rotation" : [
                0.7938352227210999,
                -0.047899987548589706,
                0.010420814156532288,
                0.6061540842056274
            ],
            "scale" : [
                1,
                0.9999995827674866,
                0.9999999403953552
            ],
            "translation" : [
                -0.05053997039794922,
                -0.06563873589038849,
                0.03958553075790405
            ]
        },
        {
            "name" : "tail.CTRL",
            "rotation" : [
                -0.9532788991928101,
                0.03987269103527069,
                0.01585373282432556,
                0.29902881383895874
            ],
            "scale" : [
                1.0000001192092896,
                0.9999964237213135,
                0.9999904036521912
            ],
            "translation" : [
                -1.6124573676279397e-07,
                -0.0214859489351511,
                -0.03652630373835564
            ]
        },
        {
            "children" : [
                3,
                8,
                23,
                27,
                28
            ],
            "name" : "torso",
            "rotation" : [
                0.997446596622467,
                -1.4394204583823011e-07,
                -2.075936663459288e-06,
                0.07141755521297455
            ],
            "scale" : [
                0.9999998807907104,
                1,
                0.9999973773956299
            ],
            "translation" : [
                -0.012536320835351944,
                0.0775497779250145,
                0.15250864624977112
            ]
        },
        {
            "name" : "foot.F.IK.L",
            "rotation" : [
                -0.994377076625824,
                -3.3747502925507433e-07,
                3.168879175063921e-06,
                0.10589748620986938
            ],
            "scale" : [
                0.9999998807907104,
                0.9999999403953552,
                0.9999976754188538
            ],
            "translation" : [
                0.04174012318253517,
                -0.6590031385421753,
                0.009056242182850838
            ]
        },
        {
            "name" : "foot.B.IK.L",
            "rotation" : [
                -0.9988790154457092,
                -1.5912793571715156e-07,
                3.3576300211279886e-06,
                0.04733838886022568
            ],
            "scale" : [
                0.9999998807907104,
                1.0000001192092896,
                1.000020146369934
            ],
            "translation" : [
                0.051781125366687775,
                -0.05684050917625427,
                0.008533142507076263
            ]
        },
        {
            "name" : "foot.F.IK.R",
            "rotation" : [
                -0.994377076625824,
                -3.3747502925507433e-07,
                3.168879175063921e-06,
                0.10589748620986938
            ],
            "scale" : [
                0.9999998807907104,
                0.9999999403953552,
                0.9999976754188538
            ],
            "translation" : [
                -0.04176534712314606,
                0.7218348383903503,
                0.008514920249581337
            ]
        },
        {
            "name" : "foot.B.IK.R",
            "rotation" : [
                -0.5858062505722046,
                -2.6482764496904565e-06,
                1.9148271803715033e-06,
                0.8104511499404907
            ],
            "scale" : [
                0.9999998807907104,
                1.0000189542770386,
                1.0000016689300537
            ],
            "translation" : [
                -0.05305217206478119,
                0.7910193800926208,
                0.36790937185287476
            ]
        },
        {
            "children" : [
                29,
                30,
                31,
                32,
                33
            ],
            "name" : "root",
            "rotation" : [
                -0.7069677710533142,
                3.772673166542078e-18,
                3.7726739937226905e-18,
                0.7072458267211914
            ],
            "scale" : [
                1,
                0.9999999403953552,
                1
            ],
            "translation" : [
                -2.172214495298073e-28,
                2.2892905155108903e-14,
                5.190490264794789e-05
            ]
        },
        {
            "children" : [
                34
            ],
            "name" : "Player",
            "rotation" : [
                0,
                -0.9504995346069336,
                0,
                0.3107263445854187
            ],
            "translation" : [
                1.207818627357483,
                0.33683329820632935,
                1.683057188987732
            ]
        }
    ],
    "animations" : [
        {
            "channels" : [
                {
                    "sampler" : 0,
                    "target" : {
                        "node" : 34,
                        "path" : "translation"
                    }
                },
                {
                    "sampler" : 1,
                    "target" : {
                        "node" : 34,
                        "path" : "rotation"
                    }
                },
                {
                    "sampler" : 2,
                    "target" : {
                        "node" : 34,
                        "path" : "scale"
                    }
                },
                {
                    "sampler" : 3,
                    "target" : {
                        "node" : 29,
                        "path" : "translation"
                    }
                },
                {
                    "sampler" : 4,
                    "target" : {
                        "node" : 29,
                        "path" : "rotation"
                    }
                },
                {
                    "sampler" : 5,
                    "target" : {
                        "node" : 29,
                        "path" : "scale"
                    }
                },
                {
                    "sampler" : 6,
                    "target" : {
                        "node" : 3,
                        "path" : "translation"
                    }
                },
                {
                    "sampler" : 7,
                    "target" : {
                        "node" : 3,
                        "path" : "rotation"
                    }
                },
                {
                    "sampler" : 8,
                    "target" : {
                        "node" : 3,
                        "path" : "scale"
                    }
                },
                {
                    "sampler" : 9,
                    "target" : {
                        "node" : 2,
                        "path" : "translation"
                    }
                },
                {
                    "sampler" : 10,
                    "target" : {
                        "node" : 2,
                        "path" : "rotation"
                    }
                },
                {
                    "sampler" : 11,
                    "target" : {
                        "node" : 2,
                        "path" : "scale"
                    }
                },
                {
                    "sampler" : 12,
                    "target" : {
                        "node" : 1,
                        "path" : "translation"
                    }
                },
                {
                    "sampler" : 13,
                    "target" : {
                        "node" : 1,
                        "path" : "rotation"
                    }
                },
                {
                    "sampler" : 14,
                    "target" : {
                        "node" : 1,
                        "path" : "scale"
                    }
                },
                {
                    "sampler" : 15,
                    "target" : {
                        "node" : 0,
                        "path" : "translation"
                    }
                },
                {
                    "sampler" : 16,
                    "target" : {
                        "node" : 0,
                        "path" : "rotation"
                    }
                },
                {
                    "sampler" : 17,
                    "target" : {
                        "node" : 0,
                        "path" : "scale"
                    }
                },
                {
                    "sampler" : 18,
                    "target" : {
                        "node" : 8,
                        "path" : "translation"
                    }
                },
                {
                    "sampler" : 19,
                    "target" : {
                        "node" : 8,
                        "path" : "rotation"
                    }
                },
                {
                    "sampler" : 20,
                    "target" : {
                        "node" : 8,
                        "path" : "scale"
                    }
                },
                {
                    "sampler" : 21,
                    "target" : {
                        "node" : 7,
                        "path" : "translation"
                    }
                },
                {
                    "sampler" : 22,
                    "target" : {
                        "node" : 7,
                        "path" : "rotation"
                    }
                },
                {
                    "sampler" : 23,
                    "target" : {
                        "node" : 7,
                        "path" : "scale"
                    }
                },
                {
                    "sampler" : 24,
                    "target" : {
                        "node" : 6,
                        "path" : "translation"
                    }
                },
                {
                    "sampler" : 25,
                    "target" : {
                        "node" : 6,
                        "path" : "rotation"
                    }
                },
                {
                    "sampler" : 26,
                    "target" : {
                        "node" : 6,
                        "path" : "scale"
                    }
                },
                {
                    "sampler" : 27,
                    "target" : {
                        "node" : 5,
                        "path" : "translation"
                    }
                },
                {
                    "sampler" : 28,
                    "target" : {
                        "node" : 5,
                        "path" : "rotation"
                    }
                },
                {
                    "sampler" : 29,
                    "target" : {
                        "node" : 5,
                        "path" : "scale"
                    }
                },
                {
                    "sampler" : 30,
                    "target" : {
                        "node" : 4,
                        "path" : "translation"
                    }
                },
                {
                    "sampler" : 31,
                    "target" : {
                        "node" : 4,
                        "path" : "rotation"
                    }
                },
                {
                    "sampler" : 32,
                    "target" : {
                        "node" : 4,
                        "path" : "scale"
                    }
                },
                {
                    "sampler" : 33,
                    "target" : {
                        "node" : 23,
                        "path" : "translation"
                    }
                },
                {
                    "sampler" : 34,
                    "target" : {
                        "node" : 23,
                        "path" : "rotation"
                    }
                },
                {
                    "sampler" : 35,
                    "target" : {
                        "node" : 23,
                        "path" : "scale"
                    }
                },
                {
                    "sampler" : 36,
                    "target" : {
                        "node" : 22,
                        "path" : "translation"
                    }
                },
                {
                    "sampler" : 37,
                    "target" : {
                        "node" : 22,
                        "path" : "rotation"
                    }
                },
                {
                    "sampler" : 38,
                    "target" : {
                        "node" : 22,
                        "path" : "scale"
                    }
                },
                {
                    "sampler" : 39,
                    "target" : {
                        "node" : 11,
                        "path" : "translation"
                    }
                },
                {
                    "sampler" : 40,
                    "target" : {
                        "node" : 11,
                        "path" : "rotation"
                    }
                },
                {
                    "sampler" : 41,
                    "target" : {
                        "node" : 11,
                        "path" : "scale"
                    }
                },
                {
                    "sampler" : 42,
                    "target" : {
                        "node" : 10,
                        "path" : "translation"
                    }
                },
                {
                    "sampler" : 43,
                    "target" : {
                        "node" : 10,
                        "path" : "rotation"
                    }
                },
                {
                    "sampler" : 44,
                    "target" : {
                        "node" : 10,
                        "path" : "scale"
                    }
                },
                {
                    "sampler" : 45,
                    "target" : {
                        "node" : 9,
                        "path" : "translation"
                    }
                },
                {
                    "sampler" : 46,
                    "target" : {
                        "node" : 9,
                        "path" : "rotation"
                    }
                },
                {
                    "sampler" : 47,
                    "target" : {
                        "node" : 9,
                        "path" : "scale"
                    }
                },
                {
                    "sampler" : 48,
                    "target" : {
                        "node" : 18,
                        "path" : "translation"
                    }
                },
                {
                    "sampler" : 49,
                    "target" : {
                        "node" : 18,
                        "path" : "rotation"
                    }
                },
                {
                    "sampler" : 50,
                    "target" : {
                        "node" : 18,
                        "path" : "scale"
                    }
                },
                {
                    "sampler" : 51,
                    "target" : {
                        "node" : 17,
                        "path" : "translation"
                    }
                },
                {
                    "sampler" : 52,
                    "target" : {
                        "node" : 17,
                        "path" : "rotation"
                    }
                },
                {
                    "sampler" : 53,
                    "target" : {
                        "node" : 17,
                        "path" : "scale"
                    }
                },
                {
                    "sampler" : 54,
                    "target" : {
                        "node" : 12,
                        "path" : "translation"
                    }
                },
                {
                    "sampler" : 55,
                    "target" : {
                        "node" : 12,
                        "path" : "rotation"
                    }
                },
                {
                    "sampler" : 56,
                    "target" : {
                        "node" : 12,
                        "path" : "scale"
                    }
                },
                {
                    "sampler" : 57,
                    "target" : {
                        "node" : 13,
                        "path" : "translation"
                    }
                },
                {
                    "sampler" : 58,
                    "target" : {
                        "node" : 13,
                        "path" : "rotation"
                    }
                },
                {
                    "sampler" : 59,
                    "target" : {
                        "node" : 13,
                        "path" : "scale"
                    }
                },
                {
                    "sampler" : 60,
                    "target" : {
                        "node" : 14,
                        "path" : "translation"
                    }
                },
                {
                    "sampler" : 61,
                    "target" : {
                        "node" : 14,
                        "path" : "rotation"
                    }
                },
                {
                    "sampler" : 62,
                    "target" : {
                        "node" : 14,
                        "path" : "scale"
                    }
                },
                {
                    "sampler" : 63,
                    "target" : {
                        "node" : 15,
                        "path" : "translation"
                    }
                },
                {
                    "sampler" : 64,
                    "target" : {
                        "node" : 15,
                        "path" : "rotation"
                    }
                },
                {
                    "sampler" : 65,
                    "target" : {
                        "node" : 15,
                        "path" : "scale"
                    }
                },
                {
                    "sampler" : 66,
                    "target" : {
                        "node" : 16,
                        "path" : "translation"
                    }
                },
                {
                    "sampler" : 67,
                    "target" : {
                        "node" : 16,
                        "path" : "rotation"
                    }
                },
                {
                    "sampler" : 68,
                    "target" : {
                        "node" : 16,
                        "path" : "scale"
                    }
                },
                {
                    "sampler" : 69,
                    "target" : {
                        "node" : 21,
                        "path" : "translation"
                    }
                },
                {
                    "sampler" : 70,
                    "target" : {
                        "node" : 21,
                        "path" : "rotation"
                    }
                },
                {
                    "sampler" : 71,
                    "target" : {
                        "node" : 21,
                        "path" : "scale"
                    }
                },
                {
                    "sampler" : 72,
                    "target" : {
                        "node" : 20,
                        "path" : "translation"
                    }
                },
                {
                    "sampler" : 73,
                    "target" : {
                        "node" : 20,
                        "path" : "rotation"
                    }
                },
                {
                    "sampler" : 74,
                    "target" : {
                        "node" : 20,
                        "path" : "scale"
                    }
                },
                {
                    "sampler" : 75,
                    "target" : {
                        "node" : 19,
                        "path" : "translation"
                    }
                },
                {
                    "sampler" : 76,
                    "target" : {
                        "node" : 19,
                        "path" : "rotation"
                    }
                },
                {
                    "sampler" : 77,
                    "target" : {
                        "node" : 19,
                        "path" : "scale"
                    }
                },
                {
                    "sampler" : 78,
                    "target" : {
                        "node" : 27,
                        "path" : "translation"
                    }
                },
                {
                    "sampler" : 79,
                    "target" : {
                        "node" : 27,
                        "path" : "rotation"
                    }
                },
                {
                    "sampler" : 80,
                    "target" : {
                        "node" : 27,
                        "path" : "scale"
                    }
                },
                {
                    "sampler" : 81,
                    "target" : {
                        "node" : 26,
                        "path" : "translation"
                    }
                },
                {
                    "sampler" : 82,
                    "target" : {
                        "node" : 26,
                        "path" : "rotation"
                    }
                },
                {
                    "sampler" : 83,
                    "target" : {
                        "node" : 26,
                        "path" : "scale"
                    }
                },
                {
                    "sampler" : 84,
                    "target" : {
                        "node" : 25,
                        "path" : "translation"
                    }
                },
                {
                    "sampler" : 85,
                    "target" : {
                        "node" : 25,
                        "path" : "rotation"
                    }
                },
                {
                    "sampler" : 86,
                    "target" : {
                        "node" : 25,
                        "path" : "scale"
                    }
                },
                {
                    "sampler" : 87,
                    "target" : {
                        "node" : 24,
                        "path" : "translation"
                    }
                },
                {
                    "sampler" : 88,
                    "target" : {
                        "node" : 24,
                        "path" : "rotation"
                    }
                },
                {
                    "sampler" : 89,
                    "target" : {
                        "node" : 24,
                        "path" : "scale"
                    }
                },
                {
                    "sampler" : 90,
                    "target" : {
                        "node" : 28,
                        "path" : "translation"
                    }
                },
                {
                    "sampler" : 91,
                    "target" : {
                        "node" : 28,
                        "path" : "rotation"
                    }
                },
                {
                    "sampler" : 92,
                    "target" : {
                        "node" : 28,
                        "path" : "scale"
                    }
                },
                {
                    "sampler" : 93,
                    "target" : {
                        "node" : 30,
                        "path" : "translation"
                    }
                },
                {
                    "sampler" : 94,
                    "target" : {
                        "node" : 30,
                        "path" : "rotation"
                    }
                },
                {
                    "sampler" : 95,
                    "target" : {
                        "node" : 30,
                        "path" : "scale"
                    }
                },
                {
                    "sampler" : 96,
                    "target" : {
                        "node" : 31,
                        "path" : "translation"
                    }
                },
                {
                    "sampler" : 97,
                    "target" : {
                        "node" : 31,
                        "path" : "rotation"
                    }
                },
                {
                    "sampler" : 98,
                    "target" : {
                        "node" : 31,
                        "path" : "scale"
                    }
                },
                {
                    "sampler" : 99,
                    "target" : {
                        "node" : 32,
                        "path" : "translation"
                    }
                },
                {
                    "sampler" : 100,
                    "target" : {
                        "node" : 32,
                        "path" : "rotation"
                    }
                },
                {
                    "sampler" : 101,
                    "target" : {
                        "node" : 32,
                        "path" : "scale"
                    }
                },
                {
                    "sampler" : 102,
                    "target" : {
                        "node" : 33,
                        "path" : "translation"
                    }
                },
                {
                    "sampler" : 103,
                    "target" : {
                        "node" : 33,
                        "path" : "rotation"
                    }
                },
                {
                    "sampler" : 104,
                    "target" : {
                        "node" : 33,
                        "path" : "scale"
                    }
                }
            ],
            "name" : "Rig|Scene",
            "samplers" : [
                {
                    "input" : 0,
                    "interpolation" : "LINEAR",
                    "output" : 1
                },
                {
                    "input" : 0,
                    "interpolation" : "LINEAR",
                    "output" : 2
                },
                {
                    "input" : 0,
                    "interpolation" : "LINEAR",
                    "output" : 3
                },
                {
                    "input" : 0,
                    "interpolation" : "LINEAR",
                    "output" : 4
                },
                {
                    "input" : 5,
                    "interpolation" : "LINEAR",
                    "output" : 6
                },
                {
                    "input" : 0,
                    "interpolation" : "LINEAR",
                    "output" : 7
                },
                {
                    "input" : 5,
                    "interpolation" : "LINEAR",
                    "output" : 8
                },
                {
                    "input" : 5,
                    "interpolation" : "LINEAR",
                    "output" : 9
                },
                {
                    "input" : 0,
                    "interpolation" : "LINEAR",
                    "output" : 10
                },
                {
                    "input" : 0,
                    "interpolation" : "LINEAR",
                    "output" : 11
                },
                {
                    "input" : 5,
                    "interpolation" : "LINEAR",
                    "output" : 12
                },
                {
                    "input" : 0,
                    "interpolation" : "LINEAR",
                    "output" : 13
                },
                {
                    "input" : 0,
                    "interpolation" : "LINEAR",
                    "output" : 14
                },
                {
                    "input" : 5,
                    "interpolation" : "LINEAR",
                    "output" : 15
                },
                {
                    "input" : 0,
                    "interpolation" : "LINEAR",
                    "output" : 16
                },
                {
                    "input" : 0,
                    "interpolation" : "LINEAR",
                    "output" : 17
                },
                {
                    "input" : 5,
                    "interpolation" : "LINEAR",
                    "output" : 18
                },
                {
                    "input" : 0,
                    "interpolation" : "LINEAR",
                    "output" : 19
                },
                {
                    "input" : 0,
                    "interpolation" : "LINEAR",
                    "output" : 20
                },
                {
                    "input" : 5,
                    "interpolation" : "LINEAR",
                    "output" : 21
                },
                {
                    "input" : 0,
                    "interpolation" : "LINEAR",
                    "output" : 22
                },
                {
                    "input" : 0,
                    "interpolation" : "LINEAR",
                    "output" : 23
                },
                {
                    "input" : 5,
                    "interpolation" : "LINEAR",
                    "output" : 24
                },
                {
                    "input" : 0,
                    "interpolation" : "LINEAR",
                    "output" : 25
                },
                {
                    "input" : 0,
                    "interpolation" : "LINEAR",
                    "output" : 26
                },
                {
                    "input" : 5,
                    "interpolation" : "LINEAR",
                    "output" : 27
                },
                {
                    "input" : 0,
                    "interpolation" : "LINEAR",
                    "output" : 28
                },
                {
                    "input" : 0,
                    "interpolation" : "LINEAR",
                    "output" : 29
                },
                {
                    "input" : 5,
                    "interpolation" : "LINEAR",
                    "output" : 30
                },
                {
                    "input" : 0,
                    "interpolation" : "LINEAR",
                    "output" : 31
                },
                {
                    "input" : 0,
                    "interpolation" : "LINEAR",
                    "output" : 32
                },
                {
                    "input" : 5,
                    "interpolation" : "LINEAR",
                    "output" : 33
                },
                {
                    "input" : 0,
                    "interpolation" : "LINEAR",
                    "output" : 34
                },
                {
                    "input" : 0,
                    "interpolation" : "LINEAR",
                    "output" : 35
                },
                {
                    "input" : 5,
                    "interpolation" : "LINEAR",
                    "output" : 36
                },
                {
                    "input" : 0,
                    "interpolation" : "LINEAR",
                    "output" : 37
                },
                {
                    "input" : 0,
                    "interpolation" : "LINEAR",
                    "output" : 38
                },
                {
                    "input" : 5,
                    "interpolation" : "LINEAR",
                    "output" : 39
                },
                {
                    "input" : 0,
                    "interpolation" : "LINEAR",
                    "output" : 40
                },
                {
                    "input" : 5,
                    "interpolation" : "LINEAR",
                    "output" : 41
                },
                {
                    "input" : 5,
                    "interpolation" : "LINEAR",
                    "output" : 42
                },
                {
                    "input" : 0,
                    "interpolation" : "LINEAR",
                    "output" : 43
                },
                {
                    "input" : 0,
                    "interpolation" : "LINEAR",
                    "output" : 44
                },
                {
                    "input" : 5,
                    "interpolation" : "LINEAR",
                    "output" : 45
                },
                {
                    "input" : 0,
                    "interpolation" : "LINEAR",
                    "output" : 46
                },
                {
                    "input" : 0,
                    "interpolation" : "LINEAR",
                    "output" : 47
                },
                {
                    "input" : 5,
                    "interpolation" : "LINEAR",
                    "output" : 48
                },
                {
                    "input" : 0,
                    "interpolation" : "LINEAR",
                    "output" : 49
                },
                {
                    "input" : 0,
                    "interpolation" : "LINEAR",
                    "output" : 50
                },
                {
                    "input" : 5,
                    "interpolation" : "LINEAR",
                    "output" : 51
                },
                {
                    "input" : 0,
                    "interpolation" : "LINEAR",
                    "output" : 52
                },
                {
                    "input" : 0,
                    "interpolation" : "LINEAR",
                    "output" : 53
                },
                {
                    "input" : 5,
                    "interpolation" : "LINEAR",
                    "output" : 54
                },
                {
                    "input" : 0,
                    "interpolation" : "LINEAR",
                    "output" : 55
                },
                {
                    "input" : 0,
                    "interpolation" : "LINEAR",
                    "output" : 56
                },
                {
                    "input" : 0,
                    "interpolation" : "LINEAR",
                    "output" : 57
                },
                {
                    "input" : 0,
                    "interpolation" : "LINEAR",
                    "output" : 58
                },
                {
                    "input" : 0,
                    "interpolation" : "LINEAR",
                    "output" : 59
                },
                {
                    "input" : 0,
                    "interpolation" : "LINEAR",
                    "output" : 60
                },
                {
                    "input" : 0,
                    "interpolation" : "LINEAR",
                    "output" : 61
                },
                {
                    "input" : 0,
                    "interpolation" : "LINEAR",
                    "output" : 62
                },
                {
                    "input" : 0,
                    "interpolation" : "LINEAR",
                    "output" : 63
                },
                {
                    "input" : 0,
                    "interpolation" : "LINEAR",
                    "output" : 64
                },
                {
                    "input" : 0,
                    "interpolation" : "LINEAR",
                    "output" : 65
                },
                {
                    "input" : 0,
                    "interpolation" : "LINEAR",
                    "output" : 66
                },
                {
                    "input" : 0,
                    "interpolation" : "LINEAR",
                    "output" : 67
                },
                {
                    "input" : 0,
                    "interpolation" : "LINEAR",
                    "output" : 68
                },
                {
                    "input" : 0,
                    "interpolation" : "LINEAR",
                    "output" : 69
                },
                {
                    "input" : 0,
                    "interpolation" : "LINEAR",
                    "output" : 70
                },
                {
                    "input" : 5,
                    "interpolation" : "LINEAR",
                    "output" : 71
                },
                {
                    "input" : 5,
                    "interpolation" : "LINEAR",
                    "output" : 72
                },
                {
                    "input" : 0,
                    "interpolation" : "LINEAR",
                    "output" : 73
                },
                {
                    "input" : 0,
                    "interpolation" : "LINEAR",
                    "output" : 74
                },
                {
                    "input" : 5,
                    "interpolation" : "LINEAR",
                    "output" : 75
                },
                {
                    "input" : 0,
                    "interpolation" : "LINEAR",
                    "output" : 76
                },
                {
                    "input" : 0,
                    "interpolation" : "LINEAR",
                    "output" : 77
                },
                {
                    "input" : 5,
                    "interpolation" : "LINEAR",
                    "output" : 78
                },
                {
                    "input" : 0,
                    "interpolation" : "LINEAR",
                    "output" : 79
                },
                {
                    "input" : 5,
                    "interpolation" : "LINEAR",
                    "output" : 80
                },
                {
                    "input" : 5,
                    "interpolation" : "LINEAR",
                    "output" : 81
                },
                {
                    "input" : 0,
                    "interpolation" : "LINEAR",
                    "output" : 82
                },
                {
                    "input" : 0,
                    "interpolation" : "LINEAR",
                    "output" : 83
                },
                {
                    "input" : 5,
                    "interpolation" : "LINEAR",
                    "output" : 84
                },
                {
                    "input" : 0,
                    "interpolation" : "LINEAR",
                    "output" : 85
                },
                {
                    "input" : 0,
                    "interpolation" : "LINEAR",
                    "output" : 86
                },
                {
                    "input" : 5,
                    "interpolation" : "LINEAR",
                    "output" : 87
                },
                {
                    "input" : 0,
                    "interpolation" : "LINEAR",
                    "output" : 88
                },
                {
                    "input" : 0,
                    "interpolation" : "LINEAR",
                    "output" : 89
                },
                {
                    "input" : 5,
                    "interpolation" : "LINEAR",
                    "output" : 90
                },
                {
                    "input" : 0,
                    "interpolation" : "LINEAR",
                    "output" : 91
                },
                {
                    "input" : 0,
                    "interpolation" : "LINEAR",
                    "output" : 92
                },
                {
                    "input" : 5,
                    "interpolation" : "LINEAR",
                    "output" : 93
                },
                {
                    "input" : 0,
                    "interpolation" : "LINEAR",
                    "output" : 94
                },
                {
                    "input" : 5,
                    "interpolation" : "LINEAR",
                    "output" : 95
                },
                {
                    "input" : 5,
                    "interpolation" : "LINEAR",
                    "output" : 96
                },
                {
                    "input" : 0,
                    "interpolation" : "LINEAR",
                    "output" : 97
                },
                {
                    "input" : 5,
                    "interpolation" : "LINEAR",
                    "output" : 98
                },
                {
                    "input" : 5,
                    "interpolation" : "LINEAR",
                    "output" : 99
                },
                {
                    "input" : 0,
                    "interpolation" : "LINEAR",
                    "output" : 100
                },
                {
                    "input" : 5,
                    "interpolation" : "LINEAR",
                    "output" : 101
                },
                {
                    "input" : 5,
                    "interpolation" : "LINEAR",
                    "output" : 102
                },
                {
                    "input" : 0,
                    "interpolation" : "LINEAR",
                    "output" : 103
                },
                {
                    "input" : 5,
                    "interpolation" : "LINEAR",
                    "output" : 104
                },
                {
                    "input" : 5,
                    "interpolation" : "LINEAR",
                    "output" : 105
                },
                {
                    "input" : 0,
                    "interpolation" : "LINEAR",
                    "output" : 106
                }
            ]
        }
    ],
    "accessors" : [
        {
            "bufferView" : 0,
            "componentType" : 5126,
            "count" : 2,
            "max" : [
                0.875
            ],
            "min" : [
                0.041666666666666664
            ],
            "type" : "SCALAR"
        },
        {
            "bufferView" : 1,
            "componentType" : 5126,
            "count" : 2,
            "type" : "VEC3"
        },
        {
            "bufferView" : 2,
            "componentType" : 5126,
            "count" : 2,
            "type" : "VEC4"
        },
        {
            "bufferView" : 3,
            "componentType" : 5126,
            "count" : 2,
            "type" : "VEC3"
        },
        {
            "bufferView" : 4,
            "componentType" : 5126,
            "count" : 2,
            "type" : "VEC3"
        },
        {
            "bufferView" : 5,
            "componentType" : 5126,
            "count" : 21,
            "max" : [
                0.875
            ],
            "min" : [
                0.041666666666666664
            ],
            "type" : "SCALAR"
        },
        {
            "bufferView" : 6,
            "componentType" : 5126,
            "count" : 21,
            "type" : "VEC4"
        },
        {
            "bufferView" : 7,
            "componentType" : 5126,
            "count" : 2,
            "type" : "VEC3"
        },
        {
            "bufferView" : 8,
            "componentType" : 5126,
            "count" : 21,
            "type" : "VEC3"
        },
        {
            "bufferView" : 9,
            "componentType" : 5126,
            "count" : 21,
            "type" : "VEC4"
        },
        {
            "bufferView" : 10,
            "componentType" : 5126,
            "count" : 2,
            "type" : "VEC3"
        },
        {
            "bufferView" : 11,
            "componentType" : 5126,
            "count" : 2,
            "type" : "VEC3"
        },
        {
            "bufferView" : 12,
            "componentType" : 5126,
            "count" : 21,
            "type" : "VEC4"
        },
        {
            "bufferView" : 13,
            "componentType" : 5126,
            "count" : 2,
            "type" : "VEC3"
        },
        {
            "bufferView" : 14,
            "componentType" : 5126,
            "count" : 2,
            "type" : "VEC3"
        },
        {
            "bufferView" : 15,
            "componentType" : 5126,
            "count" : 21,
            "type" : "VEC4"
        },
        {
            "bufferView" : 16,
            "componentType" : 5126,
            "count" : 2,
            "type" : "VEC3"
        },
        {
            "bufferView" : 17,
            "componentType" : 5126,
            "count" : 2,
            "type" : "VEC3"
        },
        {
            "bufferView" : 18,
            "componentType" : 5126,
            "count" : 21,
            "type" : "VEC4"
        },
        {
            "bufferView" : 19,
            "componentType" : 5126,
            "count" : 2,
            "type" : "VEC3"
        },
        {
            "bufferView" : 20,
            "componentType" : 5126,
            "count" : 2,
            "type" : "VEC3"
        },
        {
            "bufferView" : 21,
            "componentType" : 5126,
            "count" : 21,
            "type" : "VEC4"
        },
        {
            "bufferView" : 22,
            "componentType" : 5126,
            "count" : 2,
            "type" : "VEC3"
        },
        {
            "bufferView" : 23,
            "componentType" : 5126,
            "count" : 2,
            "type" : "VEC3"
        },
        {
            "bufferView" : 24,
            "componentType" : 5126,
            "count" : 21,
            "type" : "VEC4"
        },
        {
            "bufferView" : 25,
            "componentType" : 5126,
            "count" : 2,
            "type" : "VEC3"
        },
        {
            "bufferView" : 26,
            "componentType" : 5126,
            "count" : 2,
            "type" : "VEC3"
        },
        {
            "bufferView" : 27,
            "componentType" : 5126,
            "count" : 21,
            "type" : "VEC4"
        },
        {
            "bufferView" : 28,
            "componentType" : 5126,
            "count" : 2,
            "type" : "VEC3"
        },
        {
            "bufferView" : 29,
            "componentType" : 5126,
            "count" : 2,
            "type" : "VEC3"
        },
        {
            "bufferView" : 30,
            "componentType" : 5126,
            "count" : 21,
            "type" : "VEC4"
        },
        {
            "bufferView" : 31,
            "componentType" : 5126,
            "count" : 2,
            "type" : "VEC3"
        },
        {
            "bufferView" : 32,
            "componentType" : 5126,
            "count" : 2,
            "type" : "VEC3"
        },
        {
            "bufferView" : 33,
            "componentType" : 5126,
            "count" : 21,
            "type" : "VEC4"
        },
        {
            "bufferView" : 34,
            "componentType" : 5126,
            "count" : 2,
            "type" : "VEC3"
        },
        {
            "bufferView" : 35,
            "componentType" : 5126,
            "count" : 2,
            "type" : "VEC3"
        },
        {
            "bufferView" : 36,
            "componentType" : 5126,
            "count" : 21,
            "type" : "VEC4"
        },
        {
            "bufferView" : 37,
            "componentType" : 5126,
            "count" : 2,
            "type" : "VEC3"
        },
        {
            "bufferView" : 38,
            "componentType" : 5126,
            "count" : 2,
            "type" : "VEC3"
        },
        {
            "bufferView" : 39,
            "componentType" : 5126,
            "count" : 21,
            "type" : "VEC4"
        },
        {
            "bufferView" : 40,
            "componentType" : 5126,
            "count" : 2,
            "type" : "VEC3"
        },
        {
            "bufferView" : 41,
            "componentType" : 5126,
            "count" : 21,
            "type" : "VEC3"
        },
        {
            "bufferView" : 42,
            "componentType" : 5126,
            "count" : 21,
            "type" : "VEC4"
        },
        {
            "bufferView" : 43,
            "componentType" : 5126,
            "count" : 2,
            "type" : "VEC3"
        },
        {
            "bufferView" : 44,
            "componentType" : 5126,
            "count" : 2,
            "type" : "VEC3"
        },
        {
            "bufferView" : 45,
            "componentType" : 5126,
            "count" : 21,
            "type" : "VEC4"
        },
        {
            "bufferView" : 46,
            "componentType" : 5126,
            "count" : 2,
            "type" : "VEC3"
        },
        {
            "bufferView" : 47,
            "componentType" : 5126,
            "count" : 2,
            "type" : "VEC3"
        },
        {
            "bufferView" : 48,
            "componentType" : 5126,
            "count" : 21,
            "type" : "VEC4"
        },
        {
            "bufferView" : 49,
            "componentType" : 5126,
            "count" : 2,
            "type" : "VEC3"
        },
        {
            "bufferView" : 50,
            "componentType" : 5126,
            "count" : 2,
            "type" : "VEC3"
        },
        {
            "bufferView" : 51,
            "componentType" : 5126,
            "count" : 21,
            "type" : "VEC4"
        },
        {
            "bufferView" : 52,
            "componentType" : 5126,
            "count" : 2,
            "type" : "VEC3"
        },
        {
            "bufferView" : 53,
            "componentType" : 5126,
            "count" : 2,
            "type" : "VEC3"
        },
        {
            "bufferView" : 54,
            "componentType" : 5126,
            "count" : 21,
            "type" : "VEC4"
        },
        {
            "bufferView" : 55,
            "componentType" : 5126,
            "count" : 2,
            "type" : "VEC3"
        },
        {
            "bufferView" : 56,
            "componentType" : 5126,
            "count" : 2,
            "type" : "VEC3"
        },
        {
            "bufferView" : 57,
            "componentType" : 5126,
            "count" : 2,
            "type" : "VEC4"
        },
        {
            "bufferView" : 58,
            "componentType" : 5126,
            "count" : 2,
            "type" : "VEC3"
        },
        {
            "bufferView" : 59,
            "componentType" : 5126,
            "count" : 2,
            "type" : "VEC3"
        },
        {
            "bufferView" : 60,
            "componentType" : 5126,
            "count" : 2,
            "type" : "VEC4"
        },
        {
            "bufferView" : 61,
            "componentType" : 5126,
            "count" : 2,
            "type" : "VEC3"
        },
        {
            "bufferView" : 62,
            "componentType" : 5126,
            "count" : 2,
            "type" : "VEC3"
        },
        {
            "bufferView" : 63,
            "componentType" : 5126,
            "count" : 2,
            "type" : "VEC4"
        },
        {
            "bufferView" : 64,
            "componentType" : 5126,
            "count" : 2,
            "type" : "VEC3"
        },
        {
            "bufferView" : 65,
            "componentType" : 5126,
            "count" : 2,
            "type" : "VEC3"
        },
        {
            "bufferView" : 66,
            "componentType" : 5126,
            "count" : 2,
            "type" : "VEC4"
        },
        {
            "bufferView" : 67,
            "componentType" : 5126,
            "count" : 2,
            "type" : "VEC3"
        },
        {
            "bufferView" : 68,
            "componentType" : 5126,
            "count" : 2,
            "type" : "VEC3"
        },
        {
            "bufferView" : 69,
            "componentType" : 5126,
            "count" : 2,
            "type" : "VEC4"
        },
        {
            "bufferView" : 70,
            "componentType" : 5126,
            "count" : 2,
            "type" : "VEC3"
        },
        {
            "bufferView" : 71,
            "componentType" : 5126,
            "count" : 21,
            "type" : "VEC3"
        },
        {
            "bufferView" : 72,
            "componentType" : 5126,
            "count" : 21,
            "type" : "VEC4"
        },
        {
            "bufferView" : 73,
            "componentType" : 5126,
            "count" : 2,
            "type" : "VEC3"
        },
        {
            "bufferView" : 74,
            "componentType" : 5126,
            "count" : 2,
            "type" : "VEC3"
        },
        {
            "bufferView" : 75,
            "componentType" : 5126,
            "count" : 21,
            "type" : "VEC4"
        },
        {
            "bufferView" : 76,
            "componentType" : 5126,
            "count" : 2,
            "type" : "VEC3"
        },
        {
            "bufferView" : 77,
            "componentType" : 5126,
            "count" : 2,
            "type" : "VEC3"
        },
        {
            "bufferView" : 78,
            "componentType" : 5126,
            "count" : 21,
            "type" : "VEC4"
        },
        {
            "bufferView" : 79,
            "componentType" : 5126,
            "count" : 2,
            "type" : "VEC3"
        },
        {
            "bufferView" : 80,
            "componentType" : 5126,
            "count" : 21,
            "type" : "VEC3"
        },
        {
            "bufferView" : 81,
            "componentType" : 5126,
            "count" : 21,
            "type" : "VEC4"
        },
        {
            "bufferView" : 82,
            "componentType" : 5126,
            "count" : 2,
            "type" : "VEC3"
        },
        {
            "bufferView" : 83,
            "componentType" : 5126,
            "count" : 2,
            "type" : "VEC3"
        },
        {
            "bufferView" : 84,
            "componentType" : 5126,
            "count" : 21,
            "type" : "VEC4"
        },
        {
            "bufferView" : 85,
            "componentType" : 5126,
            "count" : 2,
            "type" : "VEC3"
        },
        {
            "bufferView" : 86,
            "componentType" : 5126,
            "count" : 2,
            "type" : "VEC3"
        },
        {
            "bufferView" : 87,
            "componentType" : 5126,
            "count" : 21,
            "type" : "VEC4"
        },
        {
            "bufferView" : 88,
            "componentType" : 5126,
            "count" : 2,
            "type" : "VEC3"
        },
        {
            "bufferView" : 89,
            "componentType" : 5126,
            "count" : 2,
            "type" : "VEC3"
        },
        {
            "bufferView" : 90,
            "componentType" : 5126,
            "count" : 21,
            "type" : "VEC4"
        },
        {
            "bufferView" : 91,
            "componentType" : 5126,
            "count" : 2,
            "type" : "VEC3"
        },
        {
            "bufferView" : 92,
            "componentType" : 5126,
            "count" : 2,
            "type" : "VEC3"
        },
        {
            "bufferView" : 93,
            "componentType" : 5126,
            "count" : 21,
            "type" : "VEC4"
        },
        {
            "bufferView" : 94,
            "componentType" : 5126,
            "count" : 2,
            "type" : "VEC3"
        },
        {
            "bufferView" : 95,
            "componentType" : 5126,
            "count" : 21,
            "type" : "VEC3"
        },
        {
            "bufferView" : 96,
            "componentType" : 5126,
            "count" : 21,
            "type" : "VEC4"
        },
        {
            "bufferView" : 97,
            "componentType" : 5126,
            "count" : 2,
            "type" : "VEC3"
        },
        {
            "bufferView" : 98,
            "componentType" : 5126,
            "count" : 21,
            "type" : "VEC3"
        },
        {
            "bufferView" : 99,
            "componentType" : 5126,
            "count" : 21,
            "type" : "VEC4"
        },
        {
            "bufferView" : 100,
            "componentType" : 5126,
            "count" : 2,
            "type" : "VEC3"
        },
        {
            "bufferView" : 101,
            "componentType" : 5126,
            "count" : 21,
            "type" : "VEC3"
        },
        {
            "bufferView" : 102,
            "componentType" : 5126,
            "count" : 21,
            "type" : "VEC4"
        },
        {
            "bufferView" : 103,
            "componentType" : 5126,
            "count" : 2,
            "type" : "VEC3"
        },
        {
            "bufferView" : 104,
            "componentType" : 5126,
            "count" : 21,
            "type" : "VEC3"
        },
        {
            "bufferView" : 105,
            "componentType" : 5126,
            "count" : 21,
            "type" : "VEC4"
        },
        {
            "bufferView" : 106,
            "componentType" : 5126,
            "count" : 2,
            "type" : "VEC3"
        }
    ],
    "bufferViews" : [
        {
            "buffer" : 0,
            "byteLength" : 8,
            "byteOffset" : 0
        },
        {
            "buffer" : 0,
            "byteLength" : 24,
            "byteOffset" : 8
        },
        {
            "buffer" : 0,
            "byteLength" : 32,
            "byteOffset" : 32
        },
        {
            "buffer" : 0,
            "byteLength" : 24,
            "byteOffset" : 64
        },
        {
            "buffer" : 0,
            "byteLength" : 24,
            "byteOffset" : 88
        },
        {
            "buffer" : 0,
            "byteLength" : 84,
            "byteOffset" : 112
        },
        {
            "buffer" : 0,
            "byteLength" : 336,
            "byteOffset" : 196
        },
        {
            "buffer" : 0,
            "byteLength" : 24,
            "byteOffset" : 532
        },
        {
            "buffer" : 0,
            "byteLength" : 252,
            "byteOffset" : 556
        },
        {
            "buffer" : 0,
            "byteLength" : 336,
            "byteOffset" : 808
        },
        {
            "buffer" : 0,
            "byteLength" : 24,
            "byteOffset" : 1144
        },
        {
            "buffer" : 0,
            "byteLength" : 24,
            "byteOffset" : 1168
        },
        {
            "buffer" : 0,
            "byteLength" : 336,
            "byteOffset" : 1192
        },
        {
            "buffer" : 0,
            "byteLength" : 24,
            "byteOffset" : 1528
        },
        {
            "buffer" : 0,
            "byteLength" : 24,
            "byteOffset" : 1552
        },
        {
            "buffer" : 0,
            "byteLength" : 336,
            "byteOffset" : 1576
        },
        {
            "buffer" : 0,
            "byteLength" : 24,
            "byteOffset" : 1912
        },
        {
            "buffer" : 0,
            "byteLength" : 24,
            "byteOffset" : 1936
        },
        {
            "buffer" : 0,
            "byteLength" : 336,
            "byteOffset" : 1960
        },
        {
            "buffer" : 0,
            "byteLength" : 24,
            "byteOffset" : 2296
        },
        {
            "buffer" : 0,
            "byteLength" : 24,
            "byteOffset" : 2320
        },
        {
            "buffer" : 0,
            "byteLength" : 336,
            "byteOffset" : 2344
        },
        {
            "buffer" : 0,
            "byteLength" : 24,
            "byteOffset" : 2680
        },
        {
            "buffer" : 0,
            "byteLength" : 24,
            "byteOffset" : 2704
        },
        {
            "buffer" : 0,
            "byteLength" : 336,
            "byteOffset" : 2728
        },
        {
            "buffer" : 0,
            "byteLength" : 24,
            "byteOffset" : 3064
        },
        {
            "buffer" : 0,
            "byteLength" : 24,
            "byteOffset" : 3088
        },
        {
            "buffer" : 0,
            "byteLength" : 336,
            "byteOffset" : 3112
        },
        {
            "buffer" : 0,
            "byteLength" : 24,
            "byteOffset" : 3448
        },
        {
            "buffer" : 0,
            "byteLength" : 24,
            "byteOffset" : 3472
        },
        {
            "buffer" : 0,
            "byteLength" : 336,
            "byteOffset" : 3496
        },
        {
            "buffer" : 0,
            "byteLength" : 24,
            "byteOffset" : 3832
        },
        {
            "buffer" : 0,
            "byteLength" : 24,
            "byteOffset" : 3856
        },
        {
            "buffer" : 0,
            "byteLength" : 336,
            "byteOffset" : 3880
        },
        {
            "buffer" : 0,
            "byteLength" : 24,
            "byteOffset" : 4216
        },
        {
            "buffer" : 0,
            "byteLength" : 24,
            "byteOffset" : 4240
        },
        {
            "buffer" : 0,
            "byteLength" : 336,
            "byteOffset" : 4264
        },
        {
            "buffer" : 0,
            "byteLength" : 24,
            "byteOffset" : 4600
        },
        {
            "buffer" : 0,
            "byteLength" : 24,
            "byteOffset" : 4624
        },
        {
            "buffer" : 0,
            "byteLength" : 336,
            "byteOffset" : 4648
        },
        {
            "buffer" : 0,
            "byteLength" : 24,
            "byteOffset" : 4984
        },
        {
            "buffer" : 0,
            "byteLength" : 252,
            "byteOffset" : 5008
        },
        {
            "buffer" : 0,
            "byteLength" : 336,
            "byteOffset" : 5260
        },
        {
            "buffer" : 0,
            "byteLength" : 24,
            "byteOffset" : 5596
        },
        {
            "buffer" : 0,
            "byteLength" : 24,
            "byteOffset" : 5620
        },
        {
            "buffer" : 0,
            "byteLength" : 336,
            "byteOffset" : 5644
        },
        {
            "buffer" : 0,
            "byteLength" : 24,
            "byteOffset" : 5980
        },
        {
            "buffer" : 0,
            "byteLength" : 24,
            "byteOffset" : 6004
        },
        {
            "buffer" : 0,
            "byteLength" : 336,
            "byteOffset" : 6028
        },
        {
            "buffer" : 0,
            "byteLength" : 24,
            "byteOffset" : 6364
        },
        {
            "buffer" : 0,
            "byteLength" : 24,
            "byteOffset" : 6388
        },
        {
            "buffer" : 0,
            "byteLength" : 336,
            "byteOffset" : 6412
        },
        {
            "buffer" : 0,
            "byteLength" : 24,
            "byteOffset" : 6748
        },
        {
            "buffer" : 0,
            "byteLength" : 24,
            "byteOffset" : 6772
        },
        {
            "buffer" : 0,
            "byteLength" : 336,
            "byteOffset" : 6796
        },
        {
            "buffer" : 0,
            "byteLength" : 24,
            "byteOffset" : 7132
        },
        {
            "buffer" : 0,
            "byteLength" : 24,
            "byteOffset" : 7156
        },
        {
            "buffer" : 0,
            "byteLength" : 32,
            "byteOffset" : 7180
        },
        {
            "buffer" : 0,
            "byteLength" : 24,
            "byteOffset" : 7212
        },
        {
            "buffer" : 0,
            "byteLength" : 24,
            "byteOffset" : 7236
        },
        {
            "buffer" : 0,
            "byteLength" : 32,
            "byteOffset" : 7260
        },
        {
            "buffer" : 0,
            "byteLength" : 24,
            "byteOffset" : 7292
        },
        {
            "buffer" : 0,
            "byteLength" : 24,
            "byteOffset" : 7316
        },
        {
            "buffer" : 0,
            "byteLength" : 32,
            "byteOffset" : 7340
        },
        {
            "buffer" : 0,
            "byteLength" : 24,
            "byteOffset" : 7372
        },
        {
            "buffer" : 0,
            "byteLength" : 24,
            "byteOffset" : 7396
        },
        {
            "buffer" : 0,
            "byteLength" : 32,
            "byteOffset" : 7420
        },
        {
            "buffer" : 0,
            "byteLength" : 24,
            "byteOffset" : 7452
        },
        {
            "buffer" : 0,
            "byteLength" : 24,
            "byteOffset" : 7476
        },
        {
            "buffer" : 0,
            "byteLength" : 32,
            "byteOffset" : 7500
        },
        {
            "buffer" : 0,
            "byteLength" : 24,
            "byteOffset" : 7532
        },
        {
            "buffer" : 0,
            "byteLength" : 252,
            "byteOffset" : 7556
        },
        {
            "buffer" : 0,
            "byteLength" : 336,
            "byteOffset" : 7808
        },
        {
            "buffer" : 0,
            "byteLength" : 24,
            "byteOffset" : 8144
        },
        {
            "buffer" : 0,
            "byteLength" : 24,
            "byteOffset" : 8168
        },
        {
            "buffer" : 0,
            "byteLength" : 336,
            "byteOffset" : 8192
        },
        {
            "buffer" : 0,
            "byteLength" : 24,
            "byteOffset" : 8528
        },
        {
            "buffer" : 0,
            "byteLength" : 24,
            "byteOffset" : 8552
        },
        {
            "buffer" : 0,
            "byteLength" : 336,
            "byteOffset" : 8576
        },
        {
            "buffer" : 0,
            "byteLength" : 24,
            "byteOffset" : 8912
        },
        {
            "buffer" : 0,
            "byteLength" : 252,
            "byteOffset" : 8936
        },
        {
            "buffer" : 0,
            "byteLength" : 336,
            "byteOffset" : 9188
        },
        {
            "buffer" : 0,
            "byteLength" : 24,
            "byteOffset" : 9524
        },
        {
            "buffer" : 0,
            "byteLength" : 24,
            "byteOffset" : 9548
        },
        {
            "buffer" : 0,
            "byteLength" : 336,
            "byteOffset" : 9572
        },
        {
            "buffer" : 0,
            "byteLength" : 24,
            "byteOffset" : 9908
        },
        {
            "buffer" : 0,
            "byteLength" : 24,
            "byteOffset" : 9932
        },
        {
            "buffer" : 0,
            "byteLength" : 336,
            "byteOffset" : 9956
        },
        {
            "buffer" : 0,
            "byteLength" : 24,
            "byteOffset" : 10292
        },
        {
            "buffer" : 0,
            "byteLength" : 24,
            "byteOffset" : 10316
        },
        {
            "buffer" : 0,
            "byteLength" : 336,
            "byteOffset" : 10340
        },
        {
            "buffer" : 0,
            "byteLength" : 24,
            "byteOffset" : 10676
        },
        {
            "buffer" : 0,
            "byteLength" : 24,
            "byteOffset" : 10700
        },
        {
            "buffer" : 0,
            "byteLength" : 336,
            "byteOffset" : 10724
        },
        {
            "buffer" : 0,
            "byteLength" : 24,
            "byteOffset" : 11060
        },
        {
            "buffer" : 0,
            "byteLength" : 252,
            "byteOffset" : 11084
        },
        {
            "buffer" : 0,
            "byteLength" : 336,
            "byteOffset" : 11336
        },
        {
            "buffer" : 0,
            "byteLength" : 24,
            "byteOffset" : 11672
        },
        {
            "buffer" : 0,
            "byteLength" : 252,
            "byteOffset" : 11696
        },
        {
            "buffer" : 0,
            "byteLength" : 336,
            "byteOffset" : 11948
        },
        {
            "buffer" : 0,
            "byteLength" : 24,
            "byteOffset" : 12284
        },
        {
            "buffer" : 0,
            "byteLength" : 252,
            "byteOffset" : 12308
        },
        {
            "buffer" : 0,
            "byteLength" : 336,
            "byteOffset" : 12560
        },
        {
            "buffer" : 0,
            "byteLength" : 24,
            "byteOffset" : 12896
        },
        {
            "buffer" : 0,
            "byteLength" : 252,
            "byteOffset" : 12920
        },
        {
            "buffer" : 0,
            "byteLength" : 336,
            "byteOffset" : 13172
        },
        {
            "buffer" : 0,
            "byteLength" : 24,
            "byteOffset" : 13508
        }
    ],
    "buffers" : [
        {
            "byteLength" : 13532,
            "uri" : "data:application/octet-stream;base64,"
        }
    ]
}
